<?xml version="1.0" encoding="UTF-8" standalone="no"?>
<svg
   width="576pt"
   height="288pt"
   viewBox="0 0 576 288"
   version="1.1"
   id="svg1373"
   sodipodi:docname="filtering_width.svg"
   xmlns:inkscape="http://www.inkscape.org/namespaces/inkscape"
   xmlns:sodipodi="http://sodipodi.sourceforge.net/DTD/sodipodi-0.dtd"
   xmlns:xlink="http://www.w3.org/1999/xlink"
   xmlns="http://www.w3.org/2000/svg"
   xmlns:svg="http://www.w3.org/2000/svg"
   xmlns:rdf="http://www.w3.org/1999/02/22-rdf-syntax-ns#"
   xmlns:cc="http://creativecommons.org/ns#"
   xmlns:dc="http://purl.org/dc/elements/1.1/">
  <sodipodi:namedview
     id="namedview1375"
     pagecolor="#ffffff"
     bordercolor="#999999"
     borderopacity="1"
     inkscape:pageshadow="0"
     inkscape:pageopacity="0"
     inkscape:pagecheckerboard="0"
     inkscape:document-units="pt"
     showgrid="false" />
  <metadata
     id="metadata824">
    <rdf:RDF>
      <cc:Work>
        <dc:type
           rdf:resource="http://purl.org/dc/dcmitype/StillImage" />
        <dc:date>2022-11-05T15:37:40.810570</dc:date>
        <dc:format>image/svg+xml</dc:format>
        <dc:creator>
          <cc:Agent>
            <dc:title>Matplotlib v3.6.1, https://matplotlib.org/</dc:title>
          </cc:Agent>
        </dc:creator>
      </cc:Work>
    </rdf:RDF>
  </metadata>
  <defs
     id="defs828">
    <style
       type="text/css"
       id="style826">*{stroke-linejoin: round; stroke-linecap: butt}</style>
    <defs
       id="defs1156">
      <path
         id="m93cbfc568a"
         d="M 0,0 H -3.5"
         style="stroke:#000000;stroke-width:0.8" />
    </defs>
    <defs
       id="defs1148">
      <path
         id="m0e8e26b238"
         d="M 0,0 H 3.5"
         style="stroke:#000000;stroke-width:0.8" />
    </defs>
    <defs
       id="defs1240">
      <path
         id="DejaVuSans-38"
         d="m 2034,2216 q -450,0 -708,-241 -257,-241 -257,-662 0,-422 257,-663 258,-241 708,-241 450,0 709,242 260,243 260,662 0,421 -258,662 -257,241 -711,241 z m -631,268 q -406,100 -633,378 -226,279 -226,679 0,559 398,884 399,325 1092,325 697,0 1094,-325 397,-325 397,-884 0,-400 -227,-679 -226,-278 -629,-378 456,-106 710,-416 255,-309 255,-755 Q 3634,634 3220,271 2806,-91 2034,-91 1263,-91 848,271 434,634 434,1313 q 0,446 256,755 257,310 713,416 z m -231,997 q 0,-362 226,-565 227,-203 636,-203 407,0 636,203 230,203 230,565 0,363 -230,566 -229,203 -636,203 -409,0 -636,-203 -226,-203 -226,-566 z"
         transform="scale(0.015625)" />
    </defs>
    <defs
       id="defs1219">
      <path
         id="DejaVuSans-36"
         d="m 2113,2584 q -425,0 -674,-291 -248,-290 -248,-796 0,-503 248,-796 249,-292 674,-292 425,0 673,292 248,293 248,796 0,506 -248,796 -248,291 -673,291 z m 1253,1979 v -575 q -238,112 -480,171 -242,60 -480,60 -625,0 -955,-422 -329,-422 -376,-1275 184,272 462,417 279,145 613,145 703,0 1111,-427 408,-426 408,-1160 0,-719 -425,-1154 -425,-434 -1131,-434 -810,0 -1238,620 -428,621 -428,1799 0,1106 525,1764 525,658 1409,658 238,0 480,-47 242,-47 505,-140 z"
         transform="scale(0.015625)" />
    </defs>
    <defs
       id="defs1198">
      <path
         id="DejaVuSans-34"
         d="M 2419,4116 825,1625 h 1594 z m -166,550 h 794 V 1625 h 666 V 1100 H 3047 V 0 H 2419 V 1100 H 313 v 609 z"
         transform="scale(0.015625)" />
    </defs>
  </defs>
  <g
     id="figure_1">
    <g
       id="axes_1">
      <rect
         style="fill:#ffe6d5;stroke:#000000;stroke-width:0.337148;stroke-linejoin:round;stroke-opacity:0.828"
         id="rect8522"
         width="58.893906"
         height="227.56256"
         x="70.298004"
         y="14.777441"
         ry="0"
         rx="0" />
      <rect
         style="fill:#008080;stroke:#000000;stroke-width:0.715377;stroke-linecap:butt;stroke-linejoin:round;stroke-opacity:0.828"
         id="rect8522-8"
         width="265.59583"
         height="227.18433"
         x="129.38103"
         y="14.966556"
         ry="0"
         rx="0" />
      <g
         id="PathCollection_1">
        <defs
           id="defs837">
          <path
             id="C0_0_aa08fd8c82"
             d="M 0 2.5  C 0.663008 2.5 1.29895 2.236584 1.767767 1.767767  C 2.236584 1.29895 2.5 0.663008 2.5 -0  C 2.5 -0.663008 2.236584 -1.29895 1.767767 -1.767767  C 1.29895 -2.236584 0.663008 -2.5 0 -2.5  C -0.663008 -2.5 -1.29895 -2.236584 -1.767767 -1.767767  C -2.236584 -1.29895 -2.5 -0.663008 -2.5 0  C -2.5 0.663008 -2.236584 1.29895 -1.767767 1.767767  C -1.29895 2.236584 -0.663008 2.5 0 2.5  z " />
        </defs>
        <g
           clip-path="url(#p9ec4817373)"
           id="g841">
          <use
             xlink:href="#C0_0_aa08fd8c82"
             x="86.539733"
             y="50.597222"
             style="fill: none; stroke: #000000"
             id="use839" />
        </g>
        <g
           clip-path="url(#p9ec4817373)"
           id="g845">
          <use
             xlink:href="#C0_0_aa08fd8c82"
             x="102.781467"
             y="90.996094"
             style="fill: none; stroke: #000000"
             id="use843" />
        </g>
        <g
           clip-path="url(#p9ec4817373)"
           id="g849">
          <use
             xlink:href="#C0_0_aa08fd8c82"
             x="119.0232"
             y="118.38815"
             style="fill: none; stroke: #000000"
             id="use847" />
        </g>
        <g
           clip-path="url(#p9ec4817373)"
           id="g853">
          <use
             xlink:href="#C0_0_aa08fd8c82"
             x="135.264933"
             y="128.460639"
             style="fill: none; stroke: #000000"
             id="use851" />
        </g>
        <g
           clip-path="url(#p9ec4817373)"
           id="g857">
          <use
             xlink:href="#C0_0_aa08fd8c82"
             x="151.506667"
             y="132.62889"
             style="fill: none; stroke: #000000"
             id="use855" />
        </g>
        <g
           clip-path="url(#p9ec4817373)"
           id="g861">
          <use
             xlink:href="#C0_0_aa08fd8c82"
             x="167.7484"
             y="137.719446"
             style="fill: none; stroke: #000000"
             id="use859" />
        </g>
        <g
           clip-path="url(#p9ec4817373)"
           id="g865">
          <use
             xlink:href="#C0_0_aa08fd8c82"
             x="183.990133"
             y="141.103309"
             style="fill: none; stroke: #000000"
             id="use863" />
        </g>
        <g
           clip-path="url(#p9ec4817373)"
           id="g869">
          <use
             xlink:href="#C0_0_aa08fd8c82"
             x="200.231867"
             y="149.203682"
             style="fill: none; stroke: #000000"
             id="use867" />
        </g>
        <g
           clip-path="url(#p9ec4817373)"
           id="g873">
          <use
             xlink:href="#C0_0_aa08fd8c82"
             x="216.4736"
             y="149.325425"
             style="fill: none; stroke: #000000"
             id="use871" />
        </g>
        <g
           clip-path="url(#p9ec4817373)"
           id="g877">
          <use
             xlink:href="#C0_0_aa08fd8c82"
             x="232.715333"
             y="155.490719"
             style="fill: none; stroke: #000000"
             id="use875" />
        </g>
        <g
           clip-path="url(#p9ec4817373)"
           id="g881">
          <use
             xlink:href="#C0_0_aa08fd8c82"
             x="248.957067"
             y="157.938661"
             style="fill: none; stroke: #000000"
             id="use879" />
        </g>
        <g
           clip-path="url(#p9ec4817373)"
           id="g885">
          <use
             xlink:href="#C0_0_aa08fd8c82"
             x="265.1988"
             y="165.452479"
             style="fill: none; stroke: #000000"
             id="use883" />
        </g>
        <g
           clip-path="url(#p9ec4817373)"
           id="g889">
          <use
             xlink:href="#C0_0_aa08fd8c82"
             x="281.440533"
             y="172.406967"
             style="fill: none; stroke: #000000"
             id="use887" />
        </g>
        <g
           clip-path="url(#p9ec4817373)"
           id="g893">
          <use
             xlink:href="#C0_0_aa08fd8c82"
             x="297.682267"
             y="175.767955"
             style="fill: none; stroke: #000000"
             id="use891" />
        </g>
        <g
           clip-path="url(#p9ec4817373)"
           id="g897">
          <use
             xlink:href="#C0_0_aa08fd8c82"
             x="313.924"
             y="180.932634"
             style="fill: none; stroke: #000000"
             id="use895" />
        </g>
        <g
           clip-path="url(#p9ec4817373)"
           id="g901">
          <use
             xlink:href="#C0_0_aa08fd8c82"
             x="330.165733"
             y="179.122597"
             style="fill: none; stroke: #000000"
             id="use899" />
        </g>
        <g
           clip-path="url(#p9ec4817373)"
           id="g905">
          <use
             xlink:href="#C0_0_aa08fd8c82"
             x="346.407467"
             y="180.675543"
             style="fill: none; stroke: #000000"
             id="use903" />
        </g>
        <g
           clip-path="url(#p9ec4817373)"
           id="g909">
          <use
             xlink:href="#C0_0_aa08fd8c82"
             x="362.6492"
             y="191.300346"
             style="fill: none; stroke: #000000"
             id="use907" />
        </g>
        <g
           clip-path="url(#p9ec4817373)"
           id="g913">
          <use
             xlink:href="#C0_0_aa08fd8c82"
             x="378.890933"
             y="187.133623"
             style="fill: none; stroke: #000000"
             id="use911" />
        </g>
        <g
           clip-path="url(#p9ec4817373)"
           id="g917">
          <use
             xlink:href="#C0_0_aa08fd8c82"
             x="395.132667"
             y="196.102048"
             style="fill: none; stroke: #000000"
             id="use915" />
        </g>
        <g
           clip-path="url(#p9ec4817373)"
           id="g921">
          <use
             xlink:href="#C0_0_aa08fd8c82"
             x="411.3744"
             y="192.327472"
             style="fill: none; stroke: #000000"
             id="use919" />
        </g>
        <g
           clip-path="url(#p9ec4817373)"
           id="g925">
          <use
             xlink:href="#C0_0_aa08fd8c82"
             x="427.616133"
             y="200.971791"
             style="fill: none; stroke: #000000"
             id="use923" />
        </g>
        <g
           clip-path="url(#p9ec4817373)"
           id="g929">
          <use
             xlink:href="#C0_0_aa08fd8c82"
             x="443.857867"
             y="199.362785"
             style="fill: none; stroke: #000000"
             id="use927" />
        </g>
        <g
           clip-path="url(#p9ec4817373)"
           id="g933">
          <use
             xlink:href="#C0_0_aa08fd8c82"
             x="460.0996"
             y="200.085915"
             style="fill: none; stroke: #000000"
             id="use931" />
        </g>
        <g
           clip-path="url(#p9ec4817373)"
           id="g937">
          <use
             xlink:href="#C0_0_aa08fd8c82"
             x="476.341333"
             y="207.52478"
             style="fill: none; stroke: #000000"
             id="use935" />
        </g>
        <g
           clip-path="url(#p9ec4817373)"
           id="g941">
          <use
             xlink:href="#C0_0_aa08fd8c82"
             x="492.583067"
             y="207.467652"
             style="fill: none; stroke: #000000"
             id="use939" />
        </g>
        <g
           clip-path="url(#p9ec4817373)"
           id="g945">
          <use
             xlink:href="#C0_0_aa08fd8c82"
             x="508.8248"
             y="205.683594"
             style="fill: none; stroke: #000000"
             id="use943" />
        </g>
        <g
           clip-path="url(#p9ec4817373)"
           id="g949">
          <use
             xlink:href="#C0_0_aa08fd8c82"
             x="525.066533"
             y="209.053968"
             style="fill: none; stroke: #000000"
             id="use947" />
        </g>
        <g
           clip-path="url(#p9ec4817373)"
           id="g953">
          <use
             xlink:href="#C0_0_aa08fd8c82"
             x="541.308267"
             y="214.56773"
             style="fill: none; stroke: #000000"
             id="use951" />
        </g>
      </g>
      <g
         id="matplotlib.axis_1">
        <g
           id="xtick_1">
          <g
             id="line2d_1">
            <defs
               id="defs957">
              <path
                 id="m3488362f44"
                 d="M 0 0  L 0 -3.5  "
                 style="stroke: #000000; stroke-width: 0.8" />
            </defs>
            <g
               id="g961">
              <use
                 xlink:href="#m3488362f44"
                 x="70.298"
                 y="242.34"
                 style="stroke: #000000; stroke-width: 0.8"
                 id="use959" />
            </g>
          </g>
          <g
             id="line2d_2">
            <defs
               id="defs965">
              <path
                 id="m9cd340da5a"
                 d="M 0 0  L 0 3.5  "
                 style="stroke: #000000; stroke-width: 0.8" />
            </defs>
            <g
               id="g969">
              <use
                 xlink:href="#m9cd340da5a"
                 x="70.298"
                 y="15.12"
                 style="stroke: #000000; stroke-width: 0.8"
                 id="use967" />
            </g>
          </g>
          <g
             id="text_1">
            <!-- 0 -->
            <g
               transform="translate(66.4805 254.958125) scale(0.12 -0.12)"
               id="g977">
              <defs
                 id="defs973">
                <path
                   id="DejaVuSans-30"
                   d="M 2034 4250  Q 1547 4250 1301 3770  Q 1056 3291 1056 2328  Q 1056 1369 1301 889  Q 1547 409 2034 409  Q 2525 409 2770 889  Q 3016 1369 3016 2328  Q 3016 3291 2770 3770  Q 2525 4250 2034 4250  z M 2034 4750  Q 2819 4750 3233 4129  Q 3647 3509 3647 2328  Q 3647 1150 3233 529  Q 2819 -91 2034 -91  Q 1250 -91 836 529  Q 422 1150 422 2328  Q 422 3509 836 4129  Q 1250 4750 2034 4750  z "
                   transform="scale(0.015625)" />
              </defs>
              <use
                 xlink:href="#DejaVuSans-30"
                 id="use975" />
            </g>
          </g>
        </g>
        <g
           id="xtick_2">
          <g
             id="line2d_3">
            <g
               id="g983">
              <use
                 xlink:href="#m3488362f44"
                 x="151.506667"
                 y="242.34"
                 style="stroke: #000000; stroke-width: 0.8"
                 id="use981" />
            </g>
          </g>
          <g
             id="line2d_4">
            <g
               id="g988">
              <use
                 xlink:href="#m9cd340da5a"
                 x="151.506667"
                 y="15.12"
                 style="stroke: #000000; stroke-width: 0.8"
                 id="use986" />
            </g>
          </g>
          <g
             id="text_2">
            <!-- 5 -->
            <g
               transform="translate(147.689167 254.958125) scale(0.12 -0.12)"
               id="g996">
              <defs
                 id="defs992">
                <path
                   id="DejaVuSans-35"
                   d="M 691 4666  L 3169 4666  L 3169 4134  L 1269 4134  L 1269 2991  Q 1406 3038 1543 3061  Q 1681 3084 1819 3084  Q 2600 3084 3056 2656  Q 3513 2228 3513 1497  Q 3513 744 3044 326  Q 2575 -91 1722 -91  Q 1428 -91 1123 -41  Q 819 9 494 109  L 494 744  Q 775 591 1075 516  Q 1375 441 1709 441  Q 2250 441 2565 725  Q 2881 1009 2881 1497  Q 2881 1984 2565 2268  Q 2250 2553 1709 2553  Q 1456 2553 1204 2497  Q 953 2441 691 2322  L 691 4666  z "
                   transform="scale(0.015625)" />
              </defs>
              <use
                 xlink:href="#DejaVuSans-35"
                 id="use994" />
            </g>
          </g>
        </g>
        <g
           id="xtick_3">
          <g
             id="line2d_5">
            <g
               id="g1002">
              <use
                 xlink:href="#m3488362f44"
                 x="232.715333"
                 y="242.34"
                 style="stroke: #000000; stroke-width: 0.8"
                 id="use1000" />
            </g>
          </g>
          <g
             id="line2d_6">
            <g
               id="g1007">
              <use
                 xlink:href="#m9cd340da5a"
                 x="232.715333"
                 y="15.12"
                 style="stroke: #000000; stroke-width: 0.8"
                 id="use1005" />
            </g>
          </g>
          <g
             id="text_3">
            <!-- 10 -->
            <g
               transform="translate(225.080333 254.958125) scale(0.12 -0.12)"
               id="g1017">
              <defs
                 id="defs1011">
                <path
                   id="DejaVuSans-31"
                   d="M 794 531  L 1825 531  L 1825 4091  L 703 3866  L 703 4441  L 1819 4666  L 2450 4666  L 2450 531  L 3481 531  L 3481 0  L 794 0  L 794 531  z "
                   transform="scale(0.015625)" />
              </defs>
              <use
                 xlink:href="#DejaVuSans-31"
                 id="use1013" />
              <use
                 xlink:href="#DejaVuSans-30"
                 x="63.623047"
                 id="use1015" />
            </g>
          </g>
        </g>
        <g
           id="xtick_4">
          <g
             id="line2d_7">
            <g
               id="g1023">
              <use
                 xlink:href="#m3488362f44"
                 x="313.924"
                 y="242.34"
                 style="stroke: #000000; stroke-width: 0.8"
                 id="use1021" />
            </g>
          </g>
          <g
             id="line2d_8">
            <g
               id="g1028">
              <use
                 xlink:href="#m9cd340da5a"
                 x="313.924"
                 y="15.12"
                 style="stroke: #000000; stroke-width: 0.8"
                 id="use1026" />
            </g>
          </g>
          <g
             id="text_4">
            <!-- 15 -->
            <g
               transform="translate(306.289 254.958125) scale(0.12 -0.12)"
               id="g1035">
              <use
                 xlink:href="#DejaVuSans-31"
                 id="use1031" />
              <use
                 xlink:href="#DejaVuSans-35"
                 x="63.623047"
                 id="use1033" />
            </g>
          </g>
        </g>
        <g
           id="xtick_5">
          <g
             id="line2d_9">
            <g
               id="g1041">
              <use
                 xlink:href="#m3488362f44"
                 x="395.132667"
                 y="242.34"
                 style="stroke: #000000; stroke-width: 0.8"
                 id="use1039" />
            </g>
          </g>
          <g
             id="line2d_10">
            <g
               id="g1046">
              <use
                 xlink:href="#m9cd340da5a"
                 x="395.132667"
                 y="15.12"
                 style="stroke: #000000; stroke-width: 0.8"
                 id="use1044" />
            </g>
          </g>
          <g
             id="text_5">
            <!-- 20 -->
            <g
               transform="translate(387.497667 254.958125) scale(0.12 -0.12)"
               id="g1056">
              <defs
                 id="defs1050">
                <path
                   id="DejaVuSans-32"
                   d="M 1228 531  L 3431 531  L 3431 0  L 469 0  L 469 531  Q 828 903 1448 1529  Q 2069 2156 2228 2338  Q 2531 2678 2651 2914  Q 2772 3150 2772 3378  Q 2772 3750 2511 3984  Q 2250 4219 1831 4219  Q 1534 4219 1204 4116  Q 875 4013 500 3803  L 500 4441  Q 881 4594 1212 4672  Q 1544 4750 1819 4750  Q 2544 4750 2975 4387  Q 3406 4025 3406 3419  Q 3406 3131 3298 2873  Q 3191 2616 2906 2266  Q 2828 2175 2409 1742  Q 1991 1309 1228 531  z "
                   transform="scale(0.015625)" />
              </defs>
              <use
                 xlink:href="#DejaVuSans-32"
                 id="use1052" />
              <use
                 xlink:href="#DejaVuSans-30"
                 x="63.623047"
                 id="use1054" />
            </g>
          </g>
        </g>
        <g
           id="xtick_6">
          <g
             id="line2d_11">
            <g
               id="g1062">
              <use
                 xlink:href="#m3488362f44"
                 x="476.341333"
                 y="242.34"
                 style="stroke: #000000; stroke-width: 0.8"
                 id="use1060" />
            </g>
          </g>
          <g
             id="line2d_12">
            <g
               id="g1067">
              <use
                 xlink:href="#m9cd340da5a"
                 x="476.341333"
                 y="15.12"
                 style="stroke: #000000; stroke-width: 0.8"
                 id="use1065" />
            </g>
          </g>
          <g
             id="text_6">
            <!-- 25 -->
            <g
               transform="translate(468.706333 254.958125) scale(0.12 -0.12)"
               id="g1074">
              <use
                 xlink:href="#DejaVuSans-32"
                 id="use1070" />
              <use
                 xlink:href="#DejaVuSans-35"
                 x="63.623047"
                 id="use1072" />
            </g>
          </g>
        </g>
        <g
           id="xtick_7">
          <g
             id="line2d_13">
            <g
               id="g1080">
              <use
                 xlink:href="#m3488362f44"
                 x="557.55"
                 y="242.34"
                 style="stroke: #000000; stroke-width: 0.8"
                 id="use1078" />
            </g>
          </g>
          <g
             id="line2d_14">
            <g
               id="g1085">
              <use
                 xlink:href="#m9cd340da5a"
                 x="557.55"
                 y="15.12"
                 style="stroke: #000000; stroke-width: 0.8"
                 id="use1083" />
            </g>
          </g>
          <g
             id="text_7">
            <!-- 30 -->
            <g
               transform="translate(549.915 254.958125) scale(0.12 -0.12)"
               id="g1095">
              <defs
                 id="defs1089">
                <path
                   id="DejaVuSans-33"
                   d="M 2597 2516  Q 3050 2419 3304 2112  Q 3559 1806 3559 1356  Q 3559 666 3084 287  Q 2609 -91 1734 -91  Q 1441 -91 1130 -33  Q 819 25 488 141  L 488 750  Q 750 597 1062 519  Q 1375 441 1716 441  Q 2309 441 2620 675  Q 2931 909 2931 1356  Q 2931 1769 2642 2001  Q 2353 2234 1838 2234  L 1294 2234  L 1294 2753  L 1863 2753  Q 2328 2753 2575 2939  Q 2822 3125 2822 3475  Q 2822 3834 2567 4026  Q 2313 4219 1838 4219  Q 1578 4219 1281 4162  Q 984 4106 628 3988  L 628 4550  Q 988 4650 1302 4700  Q 1616 4750 1894 4750  Q 2613 4750 3031 4423  Q 3450 4097 3450 3541  Q 3450 3153 3228 2886  Q 3006 2619 2597 2516  z "
                   transform="scale(0.015625)" />
              </defs>
              <use
                 xlink:href="#DejaVuSans-33"
                 id="use1091" />
              <use
                 xlink:href="#DejaVuSans-30"
                 x="63.623047"
                 id="use1093" />
            </g>
          </g>
        </g>
      </g>
      <use
         xlink:href="#m0e8e26b238"
         x="70.297997"
         y="242.34"
         style="stroke:#000000;stroke-width:0.8"
         id="use1150"
         width="100%"
         height="100%" />
      <use
         xlink:href="#m93cbfc568a"
         x="557.54999"
         y="242.34"
         style="stroke:#000000;stroke-width:0.8"
         id="use1158"
         width="100%"
         height="100%" />
      <use
         xlink:href="#DejaVuSans-30"
         id="use1163"
         x="0"
         y="0"
         width="100%"
         height="100%"
         transform="matrix(0.12,0,0,-0.12,59.163,246.89906)" />
      <use
         xlink:href="#m0e8e26b238"
         x="70.297997"
         y="209.88"
         style="stroke:#000000;stroke-width:0.8"
         id="use1169"
         width="100%"
         height="100%" />
      <use
         xlink:href="#m93cbfc568a"
         x="557.54999"
         y="209.88"
         style="stroke:#000000;stroke-width:0.8"
         id="use1174"
         width="100%"
         height="100%" />
      <use
         xlink:href="#DejaVuSans-32"
         id="use1179"
         x="0"
         y="0"
         width="100%"
         height="100%"
         transform="matrix(0.12,0,0,-0.12,51.528,214.43906)" />
      <use
         xlink:href="#DejaVuSans-30"
         x="63.623047"
         id="use1181"
         y="0"
         width="100%"
         height="100%"
         transform="matrix(0.12,0,0,-0.12,51.528,214.43906)" />
      <use
         xlink:href="#m0e8e26b238"
         x="70.297997"
         y="177.42"
         style="stroke:#000000;stroke-width:0.8"
         id="use1187"
         width="100%"
         height="100%" />
      <use
         xlink:href="#m93cbfc568a"
         x="557.54999"
         y="177.42"
         style="stroke:#000000;stroke-width:0.8"
         id="use1192"
         width="100%"
         height="100%" />
      <use
         xlink:href="#DejaVuSans-34"
         id="use1200"
         x="0"
         y="0"
         width="100%"
         height="100%"
         transform="matrix(0.12,0,0,-0.12,51.528,181.97906)" />
      <use
         xlink:href="#DejaVuSans-30"
         x="63.623047"
         id="use1202"
         y="0"
         width="100%"
         height="100%"
         transform="matrix(0.12,0,0,-0.12,51.528,181.97906)" />
      <use
         xlink:href="#m0e8e26b238"
         x="70.297997"
         y="144.96001"
         style="stroke:#000000;stroke-width:0.8"
         id="use1208"
         width="100%"
         height="100%" />
      <use
         xlink:href="#m93cbfc568a"
         x="557.54999"
         y="144.96001"
         style="stroke:#000000;stroke-width:0.8"
         id="use1213"
         width="100%"
         height="100%" />
      <use
         xlink:href="#DejaVuSans-36"
         id="use1221"
         x="0"
         y="0"
         width="100%"
         height="100%"
         transform="matrix(0.12,0,0,-0.12,51.528,149.51906)" />
      <use
         xlink:href="#DejaVuSans-30"
         x="63.623047"
         id="use1223"
         y="0"
         width="100%"
         height="100%"
         transform="matrix(0.12,0,0,-0.12,51.528,149.51906)" />
      <use
         xlink:href="#m0e8e26b238"
         x="70.297997"
         y="112.5"
         style="stroke:#000000;stroke-width:0.8"
         id="use1229"
         width="100%"
         height="100%" />
      <use
         xlink:href="#m93cbfc568a"
         x="557.54999"
         y="112.5"
         style="stroke:#000000;stroke-width:0.8"
         id="use1234"
         width="100%"
         height="100%" />
      <use
         xlink:href="#DejaVuSans-38"
         id="use1242"
         x="0"
         y="0"
         width="100%"
         height="100%"
         transform="matrix(0.12,0,0,-0.12,51.528,117.05906)" />
      <use
         xlink:href="#DejaVuSans-30"
         x="63.623047"
         id="use1244"
         y="0"
         width="100%"
         height="100%"
         transform="matrix(0.12,0,0,-0.12,51.528,117.05906)" />
      <use
         xlink:href="#m0e8e26b238"
         x="70.297997"
         y="80.040001"
         style="stroke:#000000;stroke-width:0.8"
         id="use1250"
         width="100%"
         height="100%" />
      <use
         xlink:href="#m93cbfc568a"
         x="557.54999"
         y="80.040001"
         style="stroke:#000000;stroke-width:0.8"
         id="use1255"
         width="100%"
         height="100%" />
      <use
         xlink:href="#DejaVuSans-31"
         id="use1260"
         x="0"
         y="0"
         width="100%"
         height="100%"
         transform="matrix(0.12,0,0,-0.12,43.893,84.599062)" />
      <use
         xlink:href="#DejaVuSans-30"
         x="63.623047"
         id="use1262"
         y="0"
         width="100%"
         height="100%"
         transform="matrix(0.12,0,0,-0.12,43.893,84.599062)" />
      <use
         xlink:href="#DejaVuSans-30"
         x="127.24609"
         id="use1264"
         y="0"
         width="100%"
         height="100%"
         transform="matrix(0.12,0,0,-0.12,43.893,84.599062)" />
      <use
         xlink:href="#m0e8e26b238"
         x="70.297997"
         y="47.580002"
         style="stroke:#000000;stroke-width:0.8"
         id="use1270"
         width="100%"
         height="100%" />
      <use
         xlink:href="#m93cbfc568a"
         x="557.54999"
         y="47.580002"
         style="stroke:#000000;stroke-width:0.8"
         id="use1275"
         width="100%"
         height="100%" />
      <use
         xlink:href="#DejaVuSans-31"
         id="use1280"
         x="0"
         y="0"
         width="100%"
         height="100%"
         transform="matrix(0.12,0,0,-0.12,43.893,52.139062)" />
      <use
         xlink:href="#DejaVuSans-32"
         x="63.623047"
         id="use1282"
         y="0"
         width="100%"
         height="100%"
         transform="matrix(0.12,0,0,-0.12,43.893,52.139062)" />
      <use
         xlink:href="#DejaVuSans-30"
         x="127.24609"
         id="use1284"
         y="0"
         width="100%"
         height="100%"
         transform="matrix(0.12,0,0,-0.12,43.893,52.139062)" />
      <use
         xlink:href="#m0e8e26b238"
         x="70.297997"
         y="15.12"
         style="stroke:#000000;stroke-width:0.8"
         id="use1290"
         width="100%"
         height="100%" />
      <use
         xlink:href="#m93cbfc568a"
         x="557.54999"
         y="15.12"
         style="stroke:#000000;stroke-width:0.8"
         id="use1295"
         width="100%"
         height="100%" />
      <use
         xlink:href="#DejaVuSans-31"
         id="use1300"
         x="0"
         y="0"
         width="100%"
         height="100%"
         transform="matrix(0.12,0,0,-0.12,43.893,19.679062)" />
      <use
         xlink:href="#DejaVuSans-34"
         x="63.623047"
         id="use1302"
         y="0"
         width="100%"
         height="100%"
         transform="matrix(0.12,0,0,-0.12,43.893,19.679062)" />
      <use
         xlink:href="#DejaVuSans-30"
         x="127.24609"
         id="use1304"
         y="0"
         width="100%"
         height="100%"
         transform="matrix(0.12,0,0,-0.12,43.893,19.679062)" />
      <text
         xml:space="preserve"
         style="font-size:28px;line-height:1.25;font-family:Baskerville;-inkscape-font-specification:Baskerville;stroke-width:1.5"
         x="231.14658"
         y="290.12198"
         id="text1997"><tspan
           sodipodi:role="line"
           id="tspan1995"
           style="font-style:italic;font-variant:normal;font-weight:normal;font-stretch:normal;font-size:28px;font-family:Baskerville;-inkscape-font-specification:'Baskerville Italic';stroke-width:1.5"
           x="231.14658"
           y="290.12198">Filter window W</tspan></text>
      <text
         xml:space="preserve"
         style="font-size:28px;line-height:1.25;font-family:Baskerville;-inkscape-font-specification:Baskerville;stroke-width:1.5;stroke-linecap:butt;stroke-linejoin:round"
         x="-180.94279"
         y="29.695282"
         id="text1997-3"
         transform="rotate(-90)"><tspan
           sodipodi:role="line"
           id="tspan1995-2"
           style="font-style:italic;font-variant:normal;font-weight:normal;font-stretch:normal;font-size:28px;font-family:Baskerville;-inkscape-font-specification:'Baskerville Italic';stroke-width:1.5"
           x="-180.94279"
           y="29.695282">Sup(dθ<tspan
   style="font-size:65%;baseline-shift:super"
   id="tspan7804">2</tspan>/dt<tspan
   style="font-size:65%;baseline-shift:super"
   id="tspan8418">2</tspan>)</tspan></text>
      <g
         id="line2d_31">
        <path
           d="M 70.298 15.12  L 86.539733 55.695  L 102.781467 96.27  L 119.0232 136.845  L 135.264933 177.42  L 151.506667 217.995  L 167.7484 258.57  L 179.9292 289  "
           clip-path="url(#p9ec4817373)"
           style="fill: none; stroke-dasharray: 5.55,2.4; stroke-dashoffset: 0; stroke: #ff0000; stroke-width: 1.5"
           id="path1348" />
      </g>
      <g
         id="line2d_32">
        <path
           d="M 70.298 125.484  L 86.539733 128.73  L 102.781467 131.976  L 119.0232 135.222  L 135.264933 138.468  L 151.506667 141.714  L 167.7484 144.96  L 183.990133 148.206  L 200.231867 151.452  L 216.4736 154.698  L 232.715333 157.944  L 248.957067 161.19  L 265.1988 164.436  L 281.440533 167.682  L 297.682267 170.928  L 313.924 174.174  L 330.165733 177.42  L 346.407467 180.666  L 362.6492 183.912  L 378.890933 187.158  L 395.132667 190.404  L 411.3744 193.65  L 427.616133 196.896  L 443.857867 200.142  L 460.0996 203.388  L 476.341333 206.634  L 492.583067 209.88  L 508.8248 213.126  L 525.066533 216.372  L 541.308267 219.618  "
           clip-path="url(#p9ec4817373)"
           style="fill: none; stroke-dasharray: 5.55,2.4; stroke-dashoffset: 0; stroke: #0000ff; stroke-width: 1.5"
           id="path1351" />
      </g>
      <g
         id="patch_3">
        <path
           d="M 70.298 242.34  L 70.298 15.12  "
           style="fill: none; stroke: #000000; stroke-width: 0.8; stroke-linejoin: miter; stroke-linecap: square"
           id="path1354" />
      </g>
      <g
         id="patch_4">
        <path
           d="M 557.55 242.34  L 557.55 15.12  "
           style="fill: none; stroke: #000000; stroke-width: 0.8; stroke-linejoin: miter; stroke-linecap: square"
           id="path1357" />
      </g>
      <g
         id="patch_5">
        <path
           d="M 70.298 242.34  L 557.55 242.34  "
           style="fill: none; stroke: #000000; stroke-width: 0.8; stroke-linejoin: miter; stroke-linecap: square"
           id="path1360" />
      </g>
      <g
         id="patch_6">
        <path
           d="M 70.298 15.12  L 557.55 15.12  "
           style="fill: none; stroke: #000000; stroke-width: 0.8; stroke-linejoin: miter; stroke-linecap: square"
           id="path1363" />
      </g>
    </g>
  </g>
  <defs
     id="defs1371">
    <clipPath
       id="p9ec4817373">
      <rect
         x="70.298"
         y="15.12"
         width="487.252"
         height="227.22"
         id="rect1368" />
    </clipPath>
  </defs>
</svg>
